<?xml version="1.0" encoding="UTF-8" standalone="no"?>
<svg
   version="1.0"
   width="237.000000pt"
   height="240.000000pt"
   viewBox="0 0 237.000000 240.000000"
   preserveAspectRatio="xMidYMid meet"
   id="svg158"
   sodipodi:docname="m.svg"
   inkscape:version="1.2.1 (9c6d41e410, 2022-07-14, custom)"
   xmlns:inkscape="http://www.inkscape.org/namespaces/inkscape"
   xmlns:sodipodi="http://sodipodi.sourceforge.net/DTD/sodipodi-0.dtd"
   xmlns:xlink="http://www.w3.org/1999/xlink"
   xmlns="http://www.w3.org/2000/svg"
   xmlns:svg="http://www.w3.org/2000/svg">
  <defs
     id="defs162">
    <linearGradient
       inkscape:collect="always"
       id="linearGradient3278">
      <stop
         style="stop-color:#5d2600;stop-opacity:1;"
         offset="0"
         id="stop3274" />
      <stop
         style="stop-color:#67006c;stop-opacity:1;"
         offset="1"
         id="stop3276" />
    </linearGradient>
    <radialGradient
       inkscape:collect="always"
       xlink:href="#linearGradient3278"
       id="radialGradient3280"
       cx="2366.1463"
       cy="2403.811"
       fx="2366.1463"
       fy="2403.811"
       r="2207.6874"
       gradientTransform="matrix(1,0,0,0.99905515,0,2.2712457)"
       gradientUnits="userSpaceOnUse" />
  </defs>
  <sodipodi:namedview
     id="namedview160"
     pagecolor="#ffffff"
     bordercolor="#000000"
     borderopacity="0.25"
     inkscape:showpageshadow="2"
     inkscape:pageopacity="0.0"
     inkscape:pagecheckerboard="0"
     inkscape:deskcolor="#d1d1d1"
     inkscape:document-units="pt"
     showgrid="false"
     inkscape:zoom="2.621875"
     inkscape:cx="81.811681"
     inkscape:cy="158.28367"
     inkscape:window-width="1920"
     inkscape:window-height="1011"
     inkscape:window-x="0"
     inkscape:window-y="32"
     inkscape:window-maximized="1"
     inkscape:current-layer="svg158" />
  <g
     transform="matrix(-0.05,0,0,0.05,236.61463,-0.38109655)"
     fill="#51005c"
     stroke="none"
     id="g156"
     style="fill:url(#radialGradient3280);fill-opacity:1">
    <path
       d="m 2086,4599 c -251,-33 -724,-199 -781,-274 -14,-18 -25,-27 -25,-19 0,19 -179,-93 -261,-164 -147,-127 -194,-160 -208,-146 -8,8 -11,4 -8,-7 9,-28 -114,-169 -147,-169 -20,-1 -19,-5 1,-18 23,-14 22,-20 -4,-35 C 510,3687 266,3139 184,2710 75,2146 324,1363 757,903 c 34,-37 58,-75 51,-86 -6,-10 -4,-16 6,-13 28,9 124,-66 137,-107 7,-22 17,-36 23,-30 5,5 96,-47 203,-116 510,-331 1173,-438 1753,-283 110,29 214,55 230,58 17,2 35,9 40,15 6,6 63,33 127,58 64,26 121,59 126,73 6,13 23,30 40,36 19,7 24,3 15,-12 -30,-48 323,236 432,348 121,124 327,407 327,450 0,14 13,26 28,26 17,0 25,12 18,29 -6,15 -4,31 3,35 31,13 144,296 195,486 125,463 59,1090 -158,1500 -23,44 -42,89 -43,100 0,11 -5,25 -11,30 -7,6 -55,73 -109,150 -182,263 -435,508 -632,611 -33,17 -53,38 -44,46 8,9 -9,6 -38,-5 -42,-16 -52,-14 -44,5 9,23 -221,150 -292,160 -16,2 -39,10 -50,16 -142,86 -719,153 -1004,116 z m 567,-181 C 4293,4190 4990,2162 3830,990 2578,-276 442,522 346,2292 278,3566 1392,4594 2653,4418 Z"
       id="path114"
       style="fill:url(#radialGradient3280);fill-opacity:1" />
    <path
       d="m 2460,4347 c -183,-28 -437,-127 -577,-223 -107,-75 -115,-76 -75,-13 20,32 56,79 78,104 23,25 31,45 19,45 -12,0 -41,-25 -64,-55 -41,-53 -42,-53 -30,-7 9,32 6,43 -9,33 -12,-7 -22,-38 -22,-69 0,-31 -22,-87 -50,-124 -27,-37 -77,-108 -110,-157 -53,-79 -60,-83 -60,-39 0,27 14,70 32,95 18,25 27,51 21,57 -7,7 -18,-3 -25,-21 -22,-58 -48,-36 -49,42 -1,60 -5,67 -18,34 -9,-23 -9,-88 2,-144 15,-83 10,-134 -22,-262 -23,-88 -41,-194 -42,-236 v -77 l -42,50 c -41,50 -43,135 -6,300 10,43 9,45 -11,15 -12,-20 -29,-32 -36,-27 -8,4 -11,-46 -7,-112 7,-130 -19,-145 -54,-31 -41,135 -41,190 -4,263 41,80 24,98 -26,27 l -31,-45 -1,50 c -1,28 -11,64 -23,80 -16,23 -19,15 -11,-32 43,-251 42,-275 -9,-259 -112,34 -141,28 -54,-11 73,-33 99,-57 117,-110 12,-37 47,-85 78,-107 67,-48 117,-153 86,-184 -60,-60 -292,29 -363,139 -79,122 -104,125 -43,6 53,-105 21,-106 -81,-4 -95,94 -103,62 -12,-45 50,-59 98,-88 205,-124 93,-31 121,-47 85,-48 -29,0 -76,8 -105,19 -29,11 -51,11 -51,1 0,-33 130,-61 261,-56 l 129,5 84,-170 c 50,-100 118,-201 165,-246 45,-41 81,-79 81,-83 0,-11 -172,43 -224,71 -41,22 -43,21 -19,-8 15,-18 45,-38 67,-45 33,-11 36,-17 14,-32 -19,-13 -6,-15 38,-6 49,9 93,0 170,-37 57,-28 139,-65 181,-82 90,-37 87,-70 -8,-104 -102,-37 -181,-33 -257,14 -88,53 -162,81 -162,61 0,-9 29,-30 65,-48 56,-28 59,-33 20,-34 -25,0 -45,-10 -45,-20 0,-11 14,-15 30,-8 60,23 130,-11 130,-63 0,-126 -252,-121 -368,8 -35,39 -36,54 -15,207 32,230 29,295 -18,372 -42,70 -78,76 -42,8 28,-52 52,-245 31,-245 -10,0 -38,43 -63,95 -24,52 -44,79 -45,59 0,-19 18,-71 40,-114 79,-155 42,-305 -49,-197 -97,114 -119,182 -98,290 10,54 12,124 5,157 -12,56 -13,55 -16,-20 l -2,-80 -49,80 c -60,97 -66,78 -10,-32 39,-77 38,-158 -2,-158 -33,0 -116,148 -161,289 -31,99 -67,162 -123,220 -84,87 -81,69 9,-57 31,-43 56,-99 56,-125 0,-44 -7,-50 -62,-55 -13,-1 -33,29 -45,66 -13,38 -36,73 -51,78 -22,7 -20,-1 5,-38 68,-96 21,-132 -74,-57 -29,23 -53,33 -53,22 0,-48 107,-103 202,-103 h 96 l 58,-121 c 43,-91 50,-117 26,-107 -18,8 -82,25 -144,38 -61,14 -138,41 -170,60 l -58,35 51,-48 51,-48 -76,-36 c -42,-20 -76,-45 -76,-55 0,-11 27,-5 59,11 112,58 449,0 475,-82 18,-55 -99,-50 -161,7 -34,31 -49,40 -34,21 37,-49 12,-67 -52,-38 -63,29 -81,19 -35,-19 20,-16 95,-31 180,-35 l 147,-7 95,-112 95,-111 -70,14 c -38,7 -108,40 -155,73 -104,73 -126,77 -63,9 67,-72 222,-155 404,-220 169,-59 176,-68 111,-128 -56,-53 -85,-52 -204,9 -99,50 -204,73 -126,28 36,-21 36,-22 0,-49 -32,-24 -28,-26 39,-15 128,19 184,-59 65,-91 -119,-33 -232,24 -259,131 -7,28 -18,46 -24,39 -7,-6 -1,-40 11,-76 l 23,-64 -53,48 c -28,27 -75,94 -102,149 -51,102 -159,230 -193,230 -11,0 -4,-17 15,-38 27,-29 29,-40 8,-48 -18,-7 -15,-11 7,-12 33,-2 137,-109 137,-141 0,-24 -215,31 -274,69 -37,25 -48,27 -42,7 5,-15 39,-43 77,-62 l 69,-35 h -56 c -36,0 -51,-8 -43,-22 9,-14 46,-17 103,-8 118,17 190,-14 255,-111 30,-46 74,-84 105,-92 49,-12 51,-15 15,-29 -133,-52 -393,7 -499,113 -39,39 -70,65 -70,58 0,-34 49,-94 115,-139 76,-51 59,-67 -55,-50 -16,2 -22,-4 -13,-13 9,-9 78,-17 153,-17 148,0 167,-7 149,-56 -17,-44 -85,-63 -120,-33 -17,14 -35,20 -41,13 -6,-6 9,-21 33,-35 53,-28 22,-58 -61,-59 -42,-1 -45,-4 -17,-21 46,-26 122,5 223,91 57,49 101,70 146,70 36,0 90,9 119,21 84,31 81,6 -4,-39 -42,-22 -64,-41 -49,-41 16,-1 70,25 120,56 123,76 290,172 302,173 6,0 36,25 68,55 94,89 159,45 83,-56 -39,-51 -39,-81 -1,-49 25,20 30,19 30,-9 0,-18 9,-28 20,-21 11,7 20,57 20,112 0,91 8,109 87,192 101,108 145,110 99,6 -48,-106 -54,-152 -16,-120 16,14 30,37 30,52 0,135 121,248 266,248 177,0 275,-40 164,-68 -27,-7 -50,-20 -50,-30 0,-9 40,-3 88,15 87,31 88,31 223,-37 130,-67 133,-70 77,-81 -33,-7 -100,-36 -150,-66 -110,-64 -182,-67 -261,-11 -33,23 -64,37 -70,31 -12,-12 63,-89 124,-127 38,-24 37,-26 -16,-74 -82,-75 -179,-86 -303,-35 -118,49 -190,56 -106,11 85,-46 57,-72 -120,-110 -88,-19 -207,-58 -263,-86 -78,-40 -132,-52 -231,-52 -149,0 -325,-33 -345,-65 -9,-14 5,-16 42,-7 52,13 53,11 23,-18 -51,-52 -37,-57 27,-11 79,56 243,77 278,35 56,-68 -159,-192 -337,-194 -90,-1 -103,-5 -72,-23 37,-22 213,-13 306,14 124,37 60,-179 -72,-242 -45,-21 -82,-46 -82,-55 0,-26 84,6 155,59 72,54 79,40 35,-67 -43,-103 -21,-106 31,-5 37,74 41,105 30,228 l -14,143 89,83 c 194,178 388,207 236,34 -138,-157 -197,-526 -115,-717 44,-101 56,-87 29,36 -15,71 -14,119 3,177 13,43 18,104 11,137 -27,123 107,-16 178,-185 15,-34 32,-53 40,-41 7,12 -34,111 -91,222 -102,198 -103,201 -74,276 54,142 197,35 197,-148 0,-54 8,-84 20,-76 37,23 21,163 -31,261 -74,138 -2,234 211,279 l 69,15 -65,-55 c -36,-30 -61,-59 -56,-64 5,-6 30,9 55,33 26,23 96,56 157,73 165,45 225,76 337,176 112,99 180,142 198,124 21,-22 -44,-118 -105,-155 -33,-20 -48,-37 -34,-37 20,0 20,-9 3,-42 -69,-129 48,-7 132,138 175,301 539,-329 450,-779 -65,-331 -401,-657 -731,-711 -110,-18 -82,-45 35,-33 195,19 417,146 592,338 444,485 105,1430 -577,1609 -630,165 -899,419 -956,901 -57,481 325,903 932,1030 153,32 194,22 55,-13 -65,-16 -86,-29 -68,-40 18,-11 -1,-18 -53,-19 -44,-1 -98,-9 -120,-18 -84,-35 88,-66 190,-34 48,14 48,14 11,-16 -21,-17 -71,-32 -110,-33 -65,-2 -67,-3 -21,-18 28,-9 36,-17 18,-18 -89,-5 -318,-185 -318,-249 0,-34 61,-6 126,57 40,39 84,70 98,70 14,0 -3,-23 -39,-52 -36,-28 -65,-60 -65,-70 0,-24 75,13 135,68 69,63 53,10 -20,-64 -64,-66 -64,-66 -215,-54 -88,7 -162,4 -180,-7 -27,-18 -27,-20 0,-21 41,0 180,-96 180,-123 0,-16 -8,-15 -27,0 -47,40 -153,-111 -153,-217 0,-34 5,-33 53,11 29,27 63,49 74,49 12,0 -6,-26 -41,-58 -37,-33 -73,-93 -86,-142 -13,-46 -45,-106 -71,-133 -27,-27 -49,-53 -49,-58 0,-18 158,-8 170,11 7,11 23,20 36,19 74,-2 -81,-79 -159,-79 -106,0 -124,-29 -86,-143 44,-132 250,-340 210,-212 -8,25 -16,59 -19,75 -3,17 -19,58 -37,92 -18,34 -28,81 -22,105 16,59 44,55 32,-5 -7,-36 4,-57 43,-83 29,-18 52,-46 52,-61 0,-16 9,-28 20,-28 11,0 20,9 20,20 0,11 8,20 18,20 11,0 5,-27 -11,-60 -37,-74 -22,-123 56,-190 138,-116 153,43 24,252 -84,136 -95,222 -39,299 l 35,49 -15,-70 c -19,-89 -16,-140 11,-167 15,-15 21,-6 21,30 0,28 19,68 43,89 43,38 43,38 20,-6 -28,-54 -30,-159 -3,-176 11,-7 30,-53 43,-103 l 23,-91 26,61 c 14,34 21,93 15,130 -7,38 -2,85 10,106 18,30 22,19 22,-62 1,-78 6,-94 26,-74 13,13 24,60 24,104 0,100 25,103 43,4 11,-59 4,-94 -37,-170 -58,-108 -30,-131 56,-46 33,33 49,40 49,20 0,-15 -36,-52 -80,-81 -119,-79 -88,-202 60,-237 103,-24 110,0 111,353 0,329 25,506 48,356 l 12,-70 56,113 c 60,122 55,208 -18,312 -17,25 -22,45 -11,45 11,0 31,-19 43,-42 33,-62 44,-33 21,55 -15,55 -64,119 -172,225 -82,82 -145,154 -138,160 6,7 31,-13 56,-43 52,-66 88,-74 43,-11 -35,50 -40,150 -11,196 14,22 19,5 20,-61 0,-168 52,-190 64,-27 6,86 27,170 54,225 59,115 68,99 22,-37 -41,-121 -38,-140 14,-98 24,19 20,8 -11,-36 -36,-52 -42,-80 -31,-139 l 14,-74 35,43 c 19,24 47,88 61,143 14,54 32,94 42,89 29,-19 17,-76 -44,-205 -58,-123 -59,-128 -26,-184 l 34,-57 60,104 c 41,72 64,145 74,237 9,74 29,161 47,194 l 31,61 -75,20 c -108,28 -307,62 -344,59 -17,-1 -53,-6 -81,-10 z m 28,-724 c 122,-70 167,-255 92,-378 -108,-178 -360,-194 -476,-30 -183,259 106,567 384,408 z"
       id="path116"
       style="fill:url(#radialGradient3280);fill-opacity:1" />
    <path
       d="m 2950,4195 c -7,-36 -10,-110 -6,-165 l 6,-100 54,90 c 70,119 90,199 54,222 -58,36 -96,19 -108,-47 z"
       id="path118"
       style="fill:url(#radialGradient3280);fill-opacity:1" />
    <path
       d="m 3110,4200 c 24,-39 -30,-168 -112,-265 -82,-97 -83,-98 -23,-67 34,17 66,43 72,57 6,15 10,12 11,-10 2,-38 32,-47 52,-15 7,11 23,20 36,19 54,-1 -70,-75 -147,-87 -153,-24 -199,-96 -199,-309 v -180 l 61,31 c 34,16 66,25 72,20 6,-6 -16,-25 -48,-41 -118,-62 -223,-273 -239,-488 -14,-177 0,-179 110,-18 90,132 95,152 74,283 -7,44 -4,103 7,130 20,48 21,47 22,-19 1,-69 1,-69 32,-25 17,24 40,44 52,44 11,0 1,-24 -22,-53 -22,-29 -41,-62 -41,-74 0,-11 13,-3 29,18 36,47 39,29 8,-40 -34,-75 -8,-84 70,-25 116,89 108,233 -23,379 -64,71 -68,80 -29,70 35,-9 45,-3 45,28 0,54 54,177 78,177 11,0 7,-25 -9,-55 -33,-64 -38,-157 -9,-175 11,-7 20,5 20,26 0,45 111,204 142,204 12,0 -6,-38 -40,-84 -43,-59 -62,-106 -62,-159 v -76 l 72,43 c 39,23 79,63 89,89 21,54 39,61 39,17 0,-17 -35,-69 -79,-116 -78,-85 -103,-271 -33,-248 131,43 188,398 87,544 -57,82 -73,196 -32,222 16,10 19,-2 10,-39 -8,-31 -5,-53 7,-53 11,0 20,17 20,39 0,21 23,64 51,95 l 50,56 -43,-86 c -46,-93 -45,-162 8,-284 l 30,-70 -10,130 c -9,116 -5,138 40,204 l 51,73 -44,29 c -124,81 -326,171 -303,134 z"
       id="path120"
       style="fill:url(#radialGradient3280);fill-opacity:1" />
    <path
       d="m 2057,4122 c -168,-84 -232,-150 -162,-168 19,-5 10,-7 -20,-5 -38,3 -73,-16 -118,-63 -127,-130 151,-58 293,76 44,42 115,91 157,108 72,30 75,34 40,61 -50,37 -102,35 -190,-9 z"
       id="path122"
       style="fill:url(#radialGradient3280);fill-opacity:1" />
    <path
       d="m 3440,3969 c -11,-29 -20,-74 -20,-102 v -50 l 52,62 c 71,84 83,64 19,-29 -28,-42 -52,-90 -53,-108 -4,-80 -34,-256 -49,-292 -17,-39 -16,-39 42,-2 112,71 165,136 189,229 24,95 51,143 83,143 10,0 4,-27 -13,-60 -32,-63 -13,-82 30,-30 14,17 33,30 44,30 10,0 -7,-27 -40,-59 -98,-99 -100,-150 -3,-100 134,68 134,99 3,222 -208,198 -256,222 -284,146 z"
       id="path124"
       style="fill:url(#radialGradient3280);fill-opacity:1" />
    <path
       d="m 1704,3719 c -114,-69 -163,-279 -117,-505 23,-114 63,-82 65,53 3,111 43,193 94,193 11,0 5,-16 -13,-37 -35,-39 -44,-155 -15,-201 37,-57 84,87 78,238 -5,112 1,145 30,174 35,35 36,34 15,-20 -29,-79 -28,-139 2,-84 12,22 49,68 82,103 l 60,64 -62,31 c -81,42 -139,40 -219,-9 z"
       id="path126"
       style="fill:url(#radialGradient3280);fill-opacity:1" />
    <path
       d="m 3824,3630 c -21,-45 -73,-76 -244,-147 -47,-19 -46,-20 24,-22 40,0 80,-11 88,-24 10,-16 -2,-19 -40,-9 -96,24 -312,-66 -312,-129 0,-30 53,-22 80,11 14,17 34,30 45,30 11,0 9,-13 -5,-30 -30,-36 1,-41 36,-6 13,13 24,15 24,4 0,-40 -50,-68 -123,-68 -73,0 -297,-138 -297,-183 0,-27 48,-20 91,12 57,43 81,37 39,-9 -20,-22 -53,-40 -74,-40 -58,0 -88,-88 -58,-171 44,-124 33,-216 -46,-356 -73,-131 -94,-224 -47,-208 14,5 31,35 38,67 7,32 13,50 15,40 1,-10 20,-2 42,18 56,50 50,20 -12,-61 -70,-92 -84,-205 -33,-268 79,-97 160,39 127,212 -17,91 8,177 67,226 28,24 27,14 -9,-55 -24,-46 -39,-95 -33,-109 7,-17 10,-15 11,7 1,17 25,53 54,80 l 52,48 -40,-70 c -49,-86 -76,-200 -46,-200 89,0 131,333 56,443 -58,85 -90,169 -56,148 12,-7 22,-25 22,-40 0,-14 12,-36 27,-49 22,-18 24,-4 11,81 -20,125 10,280 63,328 46,41 51,16 8,-40 -51,-68 -32,-72 76,-16 91,48 110,68 140,155 l 36,100 -6,-84 c -7,-101 30,-84 66,31 40,122 110,198 210,227 l 90,26 -54,75 c -63,89 -73,91 -103,25 z"
       id="path128"
       style="fill:url(#radialGradient3280);fill-opacity:1" />
    <path
       d="m 3906,3473 c -90,-32 -119,-67 -172,-204 -42,-108 -56,-124 -158,-179 -113,-61 -196,-124 -196,-150 0,-39 169,21 232,82 74,72 92,54 28,-28 -22,-28 -85,-66 -139,-84 -140,-46 -173,-131 -103,-264 27,-51 142,51 142,126 0,37 9,68 20,68 11,0 20,-24 20,-52 0,-45 5,-49 30,-28 17,14 30,51 30,82 0,32 9,58 20,58 79,0 -14,-206 -117,-258 -98,-50 -115,-73 -144,-188 -31,-122 -21,-129 85,-67 205,121 272,244 288,529 13,239 36,346 94,435 59,92 84,88 37,-6 -72,-142 -77,-185 -15,-111 30,35 85,75 123,89 80,29 81,33 34,115 -38,68 -46,70 -139,35 z"
       id="path130"
       style="fill:url(#radialGradient3280);fill-opacity:1" />
    <path
       d="m 3997,3271 c -80,-54 -144,-148 -166,-241 l -14,-60 54,50 c 30,28 68,82 85,120 30,68 31,69 43,21 12,-48 14,-47 48,26 20,42 41,71 47,65 19,-19 -38,-132 -81,-163 -63,-44 -17,-35 59,12 79,49 98,96 65,167 -29,64 -49,65 -140,3 z"
       id="path132"
       style="fill:url(#radialGradient3280);fill-opacity:1" />
    <path
       d="m 4121,3098 c -38,-32 -78,-58 -88,-58 -67,0 -213,-171 -213,-249 0,-27 8,-27 65,-2 36,15 116,38 177,50 171,34 208,84 163,215 l -35,102 z"
       id="path134"
       style="fill:url(#radialGradient3280);fill-opacity:1" />
    <path
       d="m 2897,2921 c -191,-199 -229,-376 -115,-548 86,-129 106,-104 90,111 -12,161 -9,185 31,257 44,78 98,116 58,40 -38,-71 -60,-141 -44,-141 8,0 25,25 37,55 20,50 22,51 24,10 1,-24 -15,-72 -36,-107 -67,-110 -22,-153 67,-64 57,58 58,71 20,293 -11,61 -5,89 29,135 l 43,58 h -54 c -39,0 -81,-28 -150,-99 z"
       id="path136"
       style="fill:url(#radialGradient3280);fill-opacity:1" />
    <path
       d="m 4244,2880 c -14,-23 -45,-50 -70,-60 -24,-9 -32,-18 -18,-19 15,0 44,8 65,20 22,11 39,13 39,3 0,-32 -101,-64 -204,-64 -113,0 -211,-48 -264,-130 -46,-69 3,-68 86,2 59,49 89,43 38,-8 -32,-32 10,-33 68,-2 32,17 39,16 32,-5 -10,-29 -64,-49 -181,-67 -45,-7 -109,-41 -162,-86 -48,-41 -104,-85 -125,-97 -34,-22 -33,-23 12,-13 28,7 63,22 78,34 22,17 26,15 19,-8 -9,-27 -60,-44 -210,-72 -42,-8 -76,-58 -58,-87 24,-38 216,29 266,93 27,36 59,66 70,66 12,0 8,-16 -9,-35 -55,-64 -65,-97 -17,-55 l 47,40 -25,-47 c -22,-43 -21,-45 17,-24 23,12 54,47 70,77 44,85 110,135 272,210 215,98 244,136 214,270 -22,97 -26,102 -50,64 z"
       id="path138"
       style="fill:url(#radialGradient3280);fill-opacity:1" />
    <path
       d="m 4289,2639 c -10,-17 -53,-56 -94,-87 -91,-68 -81,-92 37,-92 104,0 121,24 94,135 -14,59 -22,68 -37,44 z"
       id="path140"
       style="fill:url(#radialGradient3280);fill-opacity:1" />
    <path
       d="m 4006,2444 c -55,-8 -146,-113 -146,-166 0,-59 43,-64 158,-19 59,24 150,41 213,41 h 109 v 66 c 0,63 -3,66 -65,59 -36,-5 -101,0 -145,9 -44,10 -100,14 -124,10 z"
       id="path142"
       style="fill:url(#radialGradient3280);fill-opacity:1" />
    <path
       d="m 4166,2244 c -16,-10 7,-27 65,-49 49,-18 89,-25 89,-16 0,10 5,32 12,49 13,35 -117,47 -166,16 z"
       id="path144"
       style="fill:url(#radialGradient3280);fill-opacity:1" />
    <path
       d="m 3975,2188 c -7,-7 -130,-14 -273,-15 -203,-2 -267,-10 -291,-33 -27,-27 -12,-29 129,-23 109,5 188,-3 251,-24 88,-30 97,-30 171,8 80,41 105,34 43,-13 -30,-23 -15,-27 110,-30 80,-2 156,-5 170,-6 14,-1 27,16 31,38 8,61 -292,147 -341,98 z"
       id="path146"
       style="fill:url(#radialGradient3280);fill-opacity:1" />
    <path
       d="m 3400,2054 c -188,-95 -136,-524 88,-730 294,-271 425,-229 642,206 104,207 108,230 42,230 -26,0 -94,31 -150,68 l -101,69 29,-56 c 34,-66 141,-161 182,-161 15,0 28,-8 28,-18 0,-76 -170,-7 -215,88 -26,55 -63,132 -81,170 -36,75 -127,131 -245,151 l -69,12 115,-111 c 121,-116 142,-148 75,-112 -23,12 -49,17 -58,11 -29,-18 -121,68 -151,141 -31,74 -54,81 -131,42 z m 258,-328 c 164,-19 329,-234 213,-278 -16,-6 -24,-24 -18,-40 28,-71 -121,-30 -227,62 -56,50 -115,91 -129,92 -18,1 -19,4 -4,11 16,6 18,28 7,67 -22,78 -4,148 30,120 14,-12 72,-27 128,-34 z"
       id="path148"
       style="fill:url(#radialGradient3280);fill-opacity:1" />
    <path
       d="m 3928,1963 c 40,-40 68,-50 130,-46 43,2 84,-5 91,-16 8,-12 1,-16 -17,-9 -72,27 -102,-26 -34,-61 102,-53 146,-35 176,68 29,99 16,120 -74,121 h -50 l 60,-49 c 72,-59 57,-65 -34,-13 -36,21 -118,42 -182,47 l -117,9 z"
       id="path150"
       style="fill:url(#radialGradient3280);fill-opacity:1" />
    <path
       d="m 2225,1568 c -135,-69 -185,-249 -105,-379 140,-226 487,-126 487,141 0,197 -209,327 -382,238 z"
       id="path152"
       style="fill:url(#radialGradient3280);fill-opacity:1" />
    <path
       d="m 1581,1033 c -1,-45 79,-193 104,-193 10,0 1,29 -20,65 -21,36 -48,88 -60,115 -18,40 -23,42 -24,13 z"
       id="path154"
       style="fill:url(#radialGradient3280);fill-opacity:1" />
  </g>
</svg>
